<svg xmlns="http://www.w3.org/2000/svg" version="1.1" viewBox="33 24 582 121">
<path transform="matrix(1,0,0,-1,49.3864,78.5811)" d="M0 0V37.437H5.671C6.929 37.437 11.03 37.062 11.03 32.234V5.984C11.03 2.013 9.227 0 5.671 0ZM0-11.157H5.671C8.116-11.157 11.03-12.168 11.03-16.985V-43.391C11.03-48.228 7.283-48.75 5.671-48.75H0ZM8.796 49.531H-11.938V-60.688H8.796C16.669-60.688 22.963-54.467 23.125-46.516V-14.487C23.127-14.229 23.112-8.025 17.51-5.579 23.201-3.094 23.126 3.269 23.125 3.328V35.367C22.963 43.309 16.669 49.531 8.796 49.531"/>
<path transform="matrix(1,0,0,-1,130.9476,32.9097)" d="M0 0C0 2.018-1.644 3.677-3.86 3.86H-12.095V-106.36H15.203C19.081-106.36 20.858-104.628 21.674-103.158 21.971-102.563 22.815-100.632 23.708-98.588 24.247-97.354 24.806-96.073 25.276-95.016L25.54-94.421H0Z"/>
<path transform="matrix(1,0,0,-1,200.8353,29.049805)" d="M0 0H-6.457L-23.074-109.734-23.148-110.22H-12L-.469-15 11-110.22H22.211L6.354-6.294C5.852-3.109 4.947 0 0 0"/>
<path transform="matrix(1,0,0,-1,279.4291,27.9561)" d="M0 0H-6.875C-14.862 0-21.36-6.428-21.36-14.329V-98.079C-21.36-105.979-14.862-112.407-6.875-112.407H.018C7.78-112.084 13.86-105.79 13.86-98.079V-71.023L13.266-71.287C12.208-71.757 10.928-72.316 9.694-72.855 7.649-73.748 5.718-74.591 5.107-74.897 3.654-75.704 1.921-77.482 1.921-81.36V-96.047C1.921-99.227-.57-101.719-3.75-101.719-6.843-101.719-9.265-99.227-9.265-96.047V-16.204C-9.265-13.163-6.791-10.688-3.75-10.688-.57-10.688 1.921-13.112 1.921-16.204V-41.395L10.64-37.371C11.608-36.941 13.86-35.463 13.86-31.047V-14.329C13.86-6.587 7.646-.159 0 0"/>
<path transform="matrix(1,0,0,-1,375.9659,29.362305)" d="M0 0H-12.62L-25.647-37.454V.312L-33.622 .309C-36.215-.015-37.585-1.619-37.585-4.329V-109.907H-25.647V-63.396L-11.382-109.907H1.226L-17.811-49.65Z"/>
<path transform="matrix(1,0,0,-1,437.9093,44.315904)" d="M0 0V-79.688C0-82.867-2.423-85.359-5.515-85.359H-7.214C-10.317-85.211-12.749-82.72-12.749-79.688V0C-12.749 3.032-10.317 5.524-7.234 5.671H-5.515C-2.423 5.671 0 3.18 0 0M-1.748 16.36H-10.359C-18.346 16.36-24.844 9.932-24.844 2.031V-81.884C-24.681-89.694-18.184-96.047-10.359-96.047H-1.748C6.072-95.721 12.09-89.633 12.251-81.875V2.031C12.251 9.739 6.102 16.033-1.748 16.36"/>
<path transform="matrix(1,0,0,-1,516.0331,124.0034)" d="M0 0C0-3.041-2.474-5.515-5.515-5.515H-7.234C-10.239-5.515-12.593-3.092-12.593 0V94.954H-20.984C-22.881 94.954-24.507 93.412-24.687 91.406V-2.031C-24.687-9.803-18.394-15.891-10.359-15.891H-1.343V-15.72C6.226-15.354 12.095-9.417 12.095-2.031V94.954H0Z"/>
<path transform="matrix(1,0,0,-1,565.2042,29.049805)" d="M0 0C-2.092 0-3.86-1.768-3.86-3.86V-11.938H11.921V-107.454C11.921-108.729 12.85-110.22 15.469-110.22H23.86L23.857-14.219C23.983-13.086 24.845-11.938 26.25-11.938H35C39.412-11.938 40.89-9.691 41.322-8.722L45.348 0Z"/>
</svg>